<mxfile host="app.diagrams.net" modified="2023-09-01T02:02:33.018Z" agent="Mozilla/5.0 (Macintosh; Intel Mac OS X 10_15_7) AppleWebKit/605.1.15 (KHTML, like Gecko) Version/16.6 Safari/605.1.15" version="21.6.9" etag="2YA9bR_8-SVsinoB6gNU" type="github">
  <diagram name="PÃ¡gina-1" id="VXccZaDrMiNBntk61-V_">
    <mxGraphModel>
      <root>
        <mxCell id="0" />
        <mxCell id="1" parent="0" />
      </root>
    </mxGraphModel>
  </diagram>
</mxfile>
